<svg xmlns="http://www.w3.org/2000/svg" width="33" height="38" fill="none"><path fill="#fff" d="M8.303 19a4.488 4.488 0 1 0 0-8.977 4.488 4.488 0 0 0 0 8.977ZM24.012 19a4.488 4.488 0 1 0 0-8.977 4.488 4.488 0 0 0 0 8.977ZM16.307 7.48a3.74 3.74 0 1 0 0-7.48 3.74 3.74 0 0 0 0 7.48ZM30.146 38H17.878a1.15 1.15 0 0 1-1.122-1.123v-9.574c0-3.067 2.543-5.61 5.61-5.61h3.291c3.067 0 5.61 2.543 5.61 5.61v9.65c0 .598-.523 1.046-1.121 1.046ZM19 35.755h10.024v-8.452a3.352 3.352 0 0 0-3.367-3.367h-3.29A3.352 3.352 0 0 0 19 27.303v8.452ZM13.913 38H1.646a1.15 1.15 0 0 1-1.122-1.122v-8.004c0-3.965 3.216-7.256 7.256-7.256 3.964 0 7.255 3.217 7.255 7.256v8.004c0 .673-.523 1.122-1.122 1.122ZM2.768 35.756H12.79v-6.882a5.012 5.012 0 0 0-10.023 0v6.882ZM28.874 7.48a3.74 3.74 0 1 0 0-7.48 3.74 3.74 0 0 0 0 7.48ZM3.74 7.48a3.74 3.74 0 1 0 0-7.48 3.74 3.74 0 0 0 0 7.48Z"/></svg>