<svg xmlns="http://www.w3.org/2000/svg" width="32" height="38" fill="none"><path fill="#fff" d="M30.326 4.168H15.565a1.124 1.124 0 0 1-1.096-1.097c0-.584.511-1.096 1.096-1.096h14.761c.585 0 1.096.512 1.096 1.096 0 .585-.438 1.097-1.096 1.097ZM22.507 7.673h-6.87a1.124 1.124 0 0 1-1.095-1.096c0-.585.511-1.096 1.096-1.096h6.869c.585 0 1.096.511 1.096 1.096 0 .585-.511 1.096-1.096 1.096ZM8.404 9.5H1.096A1.124 1.124 0 0 1 0 8.404V1.096C0 .512.512 0 1.096 0h7.308C8.988 0 9.5.512 9.5 1.096v7.308c0 .584-.512 1.096-1.096 1.096ZM2.192 7.307h5.115V2.192H2.192v5.115ZM3.727 23.166c-.293 0-.585-.146-.804-.366L.73 20.39c-.366-.439-.366-1.17.073-1.535.438-.365 1.169-.365 1.534.073l1.316 1.389 4.603-5.92c.366-.51 1.023-.584 1.535-.219.511.366.585 1.024.22 1.535l-5.408 6.942c-.22.366-.585.512-.877.512Z"/><path fill="#fff" d="M22.507 7.673h-6.87a1.124 1.124 0 0 1-1.095-1.096c0-.585.511-1.096 1.096-1.096h6.869c.585 0 1.096.511 1.096 1.096 0 .585-.511 1.096-1.096 1.096ZM30.326 18.123H15.565a1.124 1.124 0 0 1-1.096-1.096c0-.585.511-1.096 1.096-1.096h14.761c.585 0 1.096.511 1.096 1.096 0 .585-.438 1.096-1.096 1.096ZM22.507 21.629h-6.869a1.124 1.124 0 0 1-1.096-1.096c0-.585.511-1.096 1.096-1.096h6.869c.585 0 1.096.511 1.096 1.096 0 .584-.511 1.096-1.096 1.096Z"/><path fill="#fff" d="M22.507 21.629h-6.869a1.124 1.124 0 0 1-1.096-1.096c0-.585.511-1.096 1.096-1.096h6.869c.585 0 1.096.511 1.096 1.096 0 .584-.511 1.096-1.096 1.096ZM30.326 32.663H15.565a1.124 1.124 0 0 1-1.096-1.096c0-.585.511-1.096 1.096-1.096h14.761c.585 0 1.096.511 1.096 1.096 0 .584-.438 1.096-1.096 1.096ZM22.507 36.172h-6.869a1.124 1.124 0 0 1-1.096-1.096c0-.585.511-1.096 1.096-1.096h6.869c.585 0 1.096.511 1.096 1.096 0 .584-.511 1.096-1.096 1.096ZM8.404 38H1.096A1.124 1.124 0 0 1 0 36.904v-7.307c0-.585.512-1.096 1.096-1.096h7.308c.584 0 1.096.511 1.096 1.096v7.307C9.5 37.49 8.988 38 8.404 38Zm-6.212-2.192h5.115v-5.115H2.192v5.115Z"/><path fill="#fff" d="M22.507 36.172h-6.869a1.124 1.124 0 0 1-1.096-1.096c0-.585.511-1.096 1.096-1.096h6.869c.585 0 1.096.511 1.096 1.096 0 .584-.511 1.096-1.096 1.096Z"/></svg>