<svg xmlns="http://www.w3.org/2000/svg" width="35" height="40" fill="none"><path fill="#fff" d="M16.124 6.744h-4.418c-.466 0-.776.31-.776.775v2.558c0 .465.31.775.776.775h4.418c.465 0 .775-.31.775-.775V7.52c0-.387-.387-.775-.775-.775Z"/><path fill="#fff" d="M33.488 29.845c-.62 0-1.162.543-1.162 1.163 0 3.72-3.024 6.666-6.667 6.666-3.721 0-6.667-3.023-6.667-6.666 0-3.644 3.023-6.667 6.667-6.667.155 0 .388-.077.543-.155.465-.155.775-.62.775-1.085v-4.574h5.504c.62 0 1.162-.543 1.162-1.163V1.163c0-.62-.542-1.163-1.162-1.163H7.829c-.62 0-1.162.543-1.162 1.163v11.395H1.163c-.62 0-1.163.543-1.163 1.163v16.124c0 .62.543 1.163 1.163 1.163h15.426c0 4.961 4.031 8.992 8.992 8.992 4.962 0 8.993-4.031 8.993-8.992.077-.698-.465-1.163-1.086-1.163ZM8.992 2.325H31.24v13.799H26.9v-2.403c0-.62-.543-1.163-1.164-1.163H8.992V2.326Zm15.582 12.559v3.643H2.326v-3.643h22.248ZM2.326 22.636h19.922c-2.636 1.085-4.651 3.333-5.349 6.046H2.326v-6.046Z"/><path fill="#fff" d="M33.023 24.109c-.542-.388-1.24-.31-1.628.232l-5.503 7.132-2.249-2.48c-.465-.466-1.162-.543-1.628-.078-.465.465-.542 1.163-.077 1.628l3.178 3.566c.233.232.543.387.853.387h.078c.31 0 .697-.155.852-.465l6.357-8.217c.387-.62.31-1.318-.233-1.705Z"/></svg>