<svg xmlns="http://www.w3.org/2000/svg" width="34" height="40" fill="none"><path fill="#fff" d="M28.527 22.946V3.72c0-.62-.543-1.163-1.163-1.163h-3.876V1.163c0-.62-.542-1.163-1.162-1.163-.62 0-1.163.543-1.163 1.163v1.395h-5.737V1.163c0-.62-.542-1.163-1.162-1.163-.62 0-1.163.543-1.163 1.163v1.395H7.364V1.163C7.364.543 6.822 0 6.202 0c-.62 0-1.163.543-1.163 1.163v1.395H1.163C.543 2.558 0 3.101 0 3.721v27.907c0 .62.543 1.163 1.163 1.163H15.58C16.434 36.899 20.078 40 24.42 40c4.96 0 8.992-4.031 8.992-8.992 0-3.489-2.016-6.59-4.884-8.062ZM2.326 4.884h2.713v1.705c0 .62.465 1.163 1.163 1.163.697 0 1.162-.543 1.162-1.163V4.884h5.737v1.705c0 .62.542 1.163 1.163 1.163.62 0 1.162-.543 1.162-1.163V4.884h5.737v1.705c0 .62.542 1.163 1.163 1.163.62 0 1.162-.543 1.162-1.163V4.884h2.713v6.434H2.326V4.884Zm0 8.837h23.876v8.45c-.543-.078-1.163-.155-1.783-.155-4.807 0-8.76 3.798-8.993 8.527h-13.1V13.72Zm22.093 23.953c-3.721 0-6.667-3.023-6.667-6.666 0-3.644 3.023-6.667 6.667-6.667 3.643 0 6.666 3.023 6.666 6.667 0 3.643-2.945 6.666-6.666 6.666Z"/><path fill="#fff" d="M27.364 30.465h-1.783v-2.248c0-.62-.542-1.163-1.162-1.163-.62 0-1.163.465-1.163 1.163v3.41c0 .62.543 1.163 1.163 1.163h2.945c.62 0 1.163-.542 1.163-1.162 0-.62-.542-1.163-1.163-1.163Z"/></svg>