<svg xmlns="http://www.w3.org/2000/svg" width="41" height="40" fill="none"><path fill="#fff" d="m39.857 13.943-3.58-2.59c-.077-.153-.23-.23-.382-.305L20.81.228c-.38-.304-.914-.304-1.37 0l-15.01 10.82c-.153.076-.305.152-.381.304l-3.581 2.59c-.534.382-.61 1.067-.229 1.6.381.534 1.067.61 1.6.23L3.82 14.4v24.457c0 .61.533 1.143 1.143 1.143h30.552c.61 0 1.143-.533 1.143-1.143V14.4l1.981 1.371c.229.153.457.229.686.229.38 0 .686-.152.914-.457.229-.534.076-1.295-.38-1.6Zm-5.562 23.695H5.952V12.724l14.172-10.21 14.171 10.134v24.99Z"/><path fill="#fff" d="M15.4 16.228c-.99 0-1.905.61-2.362 1.448H9.305c-.61 0-1.143.533-1.143 1.143s.533 1.143 1.143 1.143h3.657c.38.914 1.371 1.6 2.438 1.6 1.066 0 2.057-.686 2.438-1.6h13.105c.61 0 1.143-.534 1.143-1.143 0-.61-.534-1.143-1.143-1.143H17.762a2.616 2.616 0 0 0-2.362-1.448ZM30.943 24.532h-3.581c-.381-.99-1.372-1.6-2.438-1.6-1.067 0-2.058.686-2.438 1.6H9.305c-.61 0-1.143.533-1.143 1.143s.533 1.142 1.143 1.142h13.257c.457.839 1.295 1.448 2.362 1.448.99 0 1.904-.61 2.362-1.448h3.733c.61 0 1.143-.533 1.143-1.142 0-.61-.534-1.143-1.22-1.143ZM30.943 31.391H17.762c-.457-.914-1.372-1.524-2.362-1.524s-1.981.61-2.362 1.524H9.305c-.61 0-1.143.534-1.143 1.143 0 .61.533 1.143 1.143 1.143h3.657A2.715 2.715 0 0 0 15.4 35.2c1.066 0 1.98-.61 2.438-1.524h13.18c.61 0 1.144-.533 1.144-1.143s-.534-1.143-1.22-1.143Z"/></svg>