<svg xmlns="http://www.w3.org/2000/svg" width="26" height="30" fill="none"><path fill="#113602" d="M22.106 17.157V2.81c0-.501-.415-.903-.934-.903h-2.906V.903c0-.502-.415-.903-.934-.903-.519 0-.934.401-.934.903v1.003h-4.36V.903c0-.502-.414-.903-.933-.903-.52 0-1.038.401-1.038.903v1.003H5.812V.903C5.812.401 5.397 0 4.878 0 4.358 0 3.84.401 3.84.903v1.003H.934c-.519 0-.934.402-.934.903v20.77c0 .501.415.903.934.903H12.04c.726 3.11 3.529 5.317 6.85 5.317 3.84 0 7.057-3.01 7.057-6.822 0-2.408-1.557-4.716-3.84-5.82ZM1.972 3.813h1.972v1.204c0 .501.415.903.934.903.519 0 .934-.402.934-.903V3.813h4.359v1.204c0 .501.415.903.934.903.519 0 .934-.402.934-.903V3.813h4.359v1.204c0 .501.415.903.934.903.519 0 .934-.402.934-.903V3.813h1.972v4.715H1.972V3.813Zm0 6.521h18.266v6.221c-.415-.1-.83-.1-1.35-.1-3.736 0-6.745 2.81-7.057 6.32h-9.86v-12.44Zm16.917 17.76c-2.802 0-5.086-2.208-5.086-4.917 0-2.709 2.284-4.916 5.086-4.916 2.802 0 5.085 2.207 5.085 4.916 0 2.71-2.283 4.917-5.085 4.917Z"/><path fill="#113602" d="M21.172 22.776h-1.35V21.07c0-.501-.414-.903-.933-.903-.52 0-.934.402-.934.903v2.509c0 .501.415.903.934.903h2.283c.519 0 .934-.402.934-.903 0-.502-.415-.803-.934-.803Z"/></svg>