<svg xmlns="http://www.w3.org/2000/svg" width="33" height="36" fill="none"><path fill="#C1C7BF" d="M19.52 9.52c1.2 0 2.16-.96 2.16-2.16 0-1.2-.96-2.16-2.16-2.16-1.2 0-2.16.96-2.16 2.16 0 1.2.96 2.16 2.16 2.16ZM26.72 14.4a2.88 2.88 0 1 0 0-5.76 2.88 2.88 0 0 0 0 5.76Z"/><path fill="#C1C7BF" d="M32.48 18.32c.08-.4-.08-.8-.32-1.04s-.64-.48-1.04-.48H13.84V1.36C13.84.64 13.2 0 12.48 0c-.72 0-1.36.64-1.36 1.36V31.2c-.8.4-1.44 1.2-1.6 2.08H1.36c-.72 0-1.36.64-1.36 1.36C0 35.36.64 36 1.36 36h26.48c1.12 0 2.08-.8 2.24-1.92l1.28-8.64 1.12-7.12Zm-3.6 6c-.64.24-1.36.4-2.08.4-3.12 0-5.68-2.24-6.24-5.2h9.04l-.72 4.8Zm-1.36 9.04H23.2c-.08 0-.24-.08-.32-.08h-7.44c-.16-.96-.8-1.68-1.6-2.08V19.44h4c.56 4.48 4.32 7.92 8.96 7.92.56 0 1.12-.08 1.68-.16l-.96 6.16Z"/></svg>