<svg xmlns="http://www.w3.org/2000/svg" width="32" height="36" fill="none"><path fill="#C1C7BF" d="M9.217 2.602c1.735 0 3.253 1.41 3.253 3.253 0 1.735-1.41 3.253-3.253 3.253-1.844 0-3.253-1.41-3.253-3.253 0-1.843 1.518-3.253 3.253-3.253Zm0-2.602A5.831 5.831 0 0 0 3.36 5.855a5.831 5.831 0 0 0 5.856 5.856 5.831 5.831 0 0 0 5.855-5.856A5.831 5.831 0 0 0 9.217 0ZM22.554 2.602c1.735 0 3.253 1.41 3.253 3.253 0 1.735-1.41 3.253-3.253 3.253-1.843 0-3.253-1.41-3.253-3.253 0-1.843 1.41-3.253 3.253-3.253Zm0-2.602A5.831 5.831 0 0 0 16.7 5.855a5.831 5.831 0 0 0 5.855 5.856 5.831 5.831 0 0 0 5.856-5.856C28.3 2.602 25.699 0 22.554 0ZM22.554 15.18c-2.602 0-4.988 1.085-6.614 2.82-1.735-1.735-4.12-2.82-6.723-2.82A9.21 9.21 0 0 0 0 24.399v10.3C0 35.459.65 36 1.301 36h29.06c.76 0 1.302-.65 1.302-1.301V24.398c.108-5.097-4.012-9.217-9.109-9.217Zm-6.723 18.11H2.711v-8.892c0-3.579 2.928-6.506 6.506-6.506 3.578 0 6.506 2.927 6.506 6.506v8.891h.108Zm13.23 0H18.433v-8.892c0-1.518-.326-2.928-.976-4.12 1.193-1.41 3.036-2.386 5.096-2.386 3.579 0 6.506 2.927 6.506 6.506v8.891Z"/></svg>