<svg xmlns="http://www.w3.org/2000/svg" width="36" height="36" fill="none"><path fill="#C1C7BF" d="M35.4 12.2 32.3 10c-.1-.1-.3-.2-.4-.3L18.8.3c-.5-.3-1.1-.3-1.6 0L4.1 9.7c-.2.1-.3.2-.4.3L.6 12.2c-.6.4-.7 1.3-.3 1.9.4.6 1.3.7 1.9.3l1.2-.8v20.7c0 .7.6 1.3 1.3 1.3h26.7c.7 0 1.3-.6 1.3-1.3V13.6l1.2.8c.2.2.5.3.8.3.4 0 .8-.2 1.1-.6.4-.6.2-1.4-.4-1.9ZM30 33H6V11.6L18 3l12 8.7V33Z"/><path fill="#C1C7BF" d="M13.9 14.5c-.8 0-1.4.4-1.8.9H8.5c-.7 0-1.3.6-1.3 1.3 0 .7.6 1.3 1.3 1.3h3.4c.4.6 1.1 1.1 2 1.1.9 0 1.5-.4 2-1.1h11.7c.7 0 1.3-.6 1.3-1.3 0-.7-.6-1.3-1.3-1.3H15.7c-.4-.5-1.1-.9-1.8-.9ZM27.5 21.5h-3.3c-.4-.7-1.1-1.1-2-1.1-.8 0-1.6.4-2 1.1H8.5c-.7 0-1.3.6-1.3 1.3 0 .7.6 1.3 1.3 1.3h11.8c.4.6 1.1.9 1.8.9.8 0 1.4-.4 1.8-.9h3.5c.7 0 1.3-.6 1.3-1.3 0-.7-.5-1.3-1.2-1.3ZM27.5 27.4H15.8c-.4-.6-1.1-1-1.9-1-.8 0-1.5.4-1.9 1H8.5c-.7 0-1.3.6-1.3 1.3 0 .7.6 1.3 1.3 1.3h3.4c.4.6 1.1 1 1.9 1 .8 0 1.5-.4 1.9-1h11.7c.7 0 1.3-.6 1.3-1.3 0-.7-.5-1.3-1.2-1.3Z"/></svg>