<svg width="104" height="101" fill="none" xmlns="http://www.w3.org/2000/svg"><path d="M101.014 43.2h-55.03c-1.605 0-2.958 1.356-2.958 2.965v3.133c0 2.88 2.029 5.336 4.734 5.928l2.705 18.293h-3.043c-.592-3.98-3.043-7.283-6.424-9.146V6.53A6.067 6.067 0 0 0 34.91.434a6.067 6.067 0 0 0-6.086 6.097v57.842c-3.381 1.863-5.833 5.25-6.424 9.146H2.959C1.352 73.52 0 74.874 0 76.483v9.74c0 1.608 1.352 2.963 2.959 2.963h.338v.847c0 5.844 4.733 10.586 10.566 10.586h74.472c2.282 0 4.226-1.694 4.564-3.98l3.55-23.543v-.085l2.706-17.87c2.705-.592 4.733-3.048 4.733-5.927V46.08c.085-1.524-1.268-2.88-2.874-2.88ZM33.136 6.532c0-1.016.845-1.863 1.86-1.863 1.014 0 1.86.847 1.86 1.863v56.402c-.592-.085-1.184-.17-1.86-.17-.592 0-1.268.085-1.86.17V6.531Zm1.86 60.467c3.888 0 7.185 2.71 8.115 6.267H26.88c.93-3.557 4.142-6.267 8.115-6.267Zm12.257-19.563h52.493v1.863a1.878 1.878 0 0 1-1.86 1.863H49.113a1.878 1.878 0 0 1-1.86-1.863v-1.863ZM92.56 71.317c-2.282.932-4.649 1.44-7.1 1.44-9.806 0-17.92-7.622-18.682-17.276h28.15L92.56 71.317Zm-88.25 6.436h61.285v7.199H4.31v-7.199Zm3.297 12.28v-.847h54.776v.847c0 3.472-2.874 6.352-6.34 6.352H13.948c-3.55 0-6.34-2.88-6.34-6.352Zm81.234 5.928c0 .17-.17.339-.423.339H64.412c1.353-1.778 2.114-3.98 2.114-6.352v-.846h.338c1.606 0 2.959-1.355 2.959-2.965v-9.654c0-1.609-1.353-2.964-2.96-2.964H54.777l-2.705-18.038h10.397c.761 12.025 10.736 21.51 22.908 21.51 2.198 0 4.311-.338 6.424-.931L88.843 95.96Z" fill="#62C536"/><path d="M11.412 57.852c3.55 0 6.424-2.88 6.424-6.437a6.427 6.427 0 0 0-6.424-6.436 6.427 6.427 0 0 0-6.425 6.436 6.427 6.427 0 0 0 6.425 6.437Zm0-8.723c1.183 0 2.197 1.016 2.197 2.202 0 1.185-1.014 2.201-2.197 2.201-1.184 0-2.198-1.016-2.198-2.201 0-1.186 1.014-2.202 2.198-2.202ZM59.003 26.348a7.186 7.186 0 0 0 7.185-7.198 7.186 7.186 0 1 0-14.37 0 7.186 7.186 0 0 0 7.185 7.198Zm0-10.163c1.606 0 2.958 1.355 2.958 2.965 0 1.609-1.352 2.963-2.958 2.963s-2.959-1.354-2.959-2.963c0-1.61 1.353-2.965 2.959-2.965ZM92.139 38.628c5.663 0 10.228-4.573 10.228-10.247 0-5.675-4.565-10.248-10.228-10.248-5.664 0-10.228 4.573-10.228 10.248 0 5.674 4.649 10.247 10.228 10.247Zm0-16.176c3.296 0 6.001 2.71 6.001 6.013s-2.705 6.013-6.001 6.013c-3.297 0-6.002-2.71-6.002-6.013s2.705-6.013 6.002-6.013Z" fill="#62C536"/></svg>