<svg width="108" height="96" fill="none" xmlns="http://www.w3.org/2000/svg"><path d="M85.438 52.17h-4.67V39.99c0-2.42-1.45-4.518-3.463-5.486l1.046-.565a1.992 1.992 0 0 0 .725-2.743l-15.22-26.38c-.24-.484-.724-.807-1.207-.969-.483-.16-1.047-.08-1.53.243l-11.918 6.857L37.283.942c-.885-.726-2.093-.565-2.818.242L7.086 33.938H6.04C2.738 33.938 0 36.681 0 39.988v49.616c0 3.308 2.738 6.05 6.04 6.05h68.688c3.301 0 6.04-2.742 6.04-6.05V77.422h4.67c1.53 0 2.818-1.29 2.818-2.823V54.994c0-1.532-1.288-2.823-2.818-2.823ZM61.44 8.607l13.126 22.831-4.188 2.501H17.716L61.44 8.606ZM36.237 5.3l9.26 7.825-30.68 17.749 21.42-25.574ZM76.74 89.604c0 1.13-.886 2.017-2.013 2.017H6.039a1.995 1.995 0 0 1-2.013-2.017V39.99c0-1.13.886-2.017 2.013-2.017h68.85c1.127 0 2.013.887 2.013 2.017V52.17h-19.81c-6.925 0-12.561 5.647-12.561 12.585 0 6.938 5.636 12.585 12.562 12.585h19.81v12.263h-.162Zm7.489-16.216H56.932c-4.751 0-8.536-3.872-8.536-8.551 0-4.68 3.865-8.552 8.536-8.552H78.19c.162.081.403.081.564.081.161 0 .403-.08.564-.08h4.831v17.102h.08ZM83.988 8.446a6.123 6.123 0 0 0-6.12 6.13 6.123 6.123 0 0 0 6.12 6.132 6.123 6.123 0 0 0 6.12-6.131c0-3.389-2.657-6.131-6.12-6.131Zm0 8.31c-1.127 0-2.093-.969-2.093-2.098 0-1.13.966-2.098 2.093-2.098 1.128 0 2.094.968 2.094 2.098 0 1.129-.886 2.097-2.094 2.097Z" fill="#62C536"/><path d="M14.736 43.055a6.123 6.123 0 0 0-6.12 6.13 6.123 6.123 0 0 0 6.12 6.132 6.123 6.123 0 0 0 6.12-6.131c0-3.389-2.657-6.131-6.12-6.131Zm0 8.228c-1.127 0-2.094-.968-2.094-2.097 0-1.13.967-2.098 2.094-2.098 1.127 0 2.094.968 2.094 2.098s-.886 2.097-2.094 2.097ZM57.415 58.625a6.123 6.123 0 0 0-6.12 6.132 6.123 6.123 0 0 0 6.12 6.131 6.123 6.123 0 0 0 6.12-6.131c0-3.389-2.657-6.132-6.12-6.132Zm0 8.31c-1.127 0-2.094-.968-2.094-2.098s.967-2.097 2.094-2.097c1.127 0 2.094.968 2.094 2.097 0 1.13-.886 2.098-2.094 2.098ZM97.839 25.226c-5.073 0-9.18 4.114-9.18 9.197 0 5.082 4.107 9.197 9.18 9.197 5.073 0 9.18-4.115 9.18-9.197 0-5.083-4.188-9.197-9.18-9.197Zm0 14.28c-2.819 0-5.154-2.34-5.154-5.164s2.335-5.163 5.154-5.163c2.818 0 5.153 2.34 5.153 5.163 0 2.824-2.335 5.163-5.153 5.163Z" fill="#62C536"/></svg>