<svg width="96" height="98" fill="none" xmlns="http://www.w3.org/2000/svg"><path d="M88.704 27.594c-3.613 0-6.652 2.962-6.652 6.665a6.631 6.631 0 0 0 6.652 6.666c3.614 0 6.653-2.963 6.653-6.666 0-3.703-3.039-6.665-6.653-6.665Zm0 9.216a2.561 2.561 0 0 1-2.546-2.55c0-1.4 1.15-2.551 2.546-2.551a2.561 2.561 0 0 1 2.547 2.55c0 1.4-1.15 2.551-2.547 2.551ZM9.363 33.766C4.19 33.766 0 37.962 0 43.146c0 5.184 4.189 9.381 9.363 9.381 5.175 0 9.364-4.197 9.364-9.38 0-5.185-4.271-9.381-9.364-9.381Zm0 14.565c-2.874 0-5.256-2.387-5.256-5.267 0-2.88 2.382-5.266 5.256-5.266 2.875 0 5.257 2.386 5.257 5.266s-2.382 5.267-5.257 5.267Z" fill="#62C536"/><path d="M71.21 31.215c5.503 0 10.02-4.526 10.02-10.04 0-5.101-3.86-9.38-8.87-9.956C70.88 5.54 65.79 1.59 59.876 1.59c-2.3 0-4.436.576-6.407 1.728C51.58 1.51 49.116.44 46.488.44c-3.532 0-6.817 1.893-8.542 4.855-1.89-.247-3.86.083-5.585.905-1.807-2.715-4.928-4.36-8.296-4.36-5.503 0-10.02 4.525-10.02 10.038 0 4.114 2.464 7.735 6.16 9.299a9.5 9.5 0 0 0-.246 2.139c0 2.633.985 5.02 2.71 6.83a7.657 7.657 0 0 0-.41 2.386V70.63c0 2.797 1.806 5.019 2.874 6.171v18.761c0 1.152.903 2.057 2.053 2.057H58.07c1.15 0 2.053-.905 2.053-2.057V77.79a12.291 12.291 0 0 0 2.135-1.729c1.068-1.07 2.054-2.386 2.875-3.867L78.93 48.248a7.012 7.012 0 0 0 .74-5.431 7.028 7.028 0 0 0-3.368-4.279c-3.285-1.81-7.556-.576-9.527 2.798l-.657 1.152V29.733c1.478.905 3.203 1.482 5.092 1.482Zm-53.058-19.42a5.894 5.894 0 0 1 5.913-5.925c2.464 0 4.682 1.564 5.585 3.868.247.658.74 1.07 1.397 1.234.657.165 1.314 0 1.806-.411 1.068-.905 2.382-1.317 3.779-1.317a6.83 6.83 0 0 1 1.807.247c1.067.33 2.135-.165 2.546-1.234.903-2.304 3.12-3.786 5.503-3.786 1.97 0 3.778.988 4.928 2.634.328.493.821.822 1.396.905a2.056 2.056 0 0 0 1.56-.412c1.561-1.234 3.532-1.892 5.504-1.892 4.435 0 8.213 3.373 8.788 7.735.164 1.07 1.068 1.892 2.135 1.81H71.21a5.894 5.894 0 0 1 5.914 5.925A5.895 5.895 0 0 1 71.21 27.1c-2.3 0-4.271-1.234-5.339-3.291 0-.083-.082-.165-.164-.247-.082-.165-.082-.33-.164-.494 0 0 0-.082-.082-.082-.082-.165-.082-.33-.165-.412 0 0 0-.082-.082-.082-.41-.823-.985-1.563-1.642-2.222-.165-.164-.247-.246-.411-.329-.575-.411-1.15-.74-1.89-.987-.081 0-.081 0-.163-.082-.083 0-.247-.083-.329-.083-.082 0-.164-.082-.246-.082-.083 0-.247-.082-.329-.082-.082 0-.246 0-.41-.083h-.904a7.075 7.075 0 0 0-2.957.659v-1.07c0-3.867-3.039-7.077-6.817-7.241-1.89-.083-3.696.658-5.092 1.975-.822.822-1.397 1.728-1.725 2.797v.083c0 .082-.082.247-.082.329 0 .082-.082.164-.082.329v.165c0 .164-.082.329-.082.493v.082c0 .165 0 .412-.083.576-.575-.246-1.232-.493-1.889-.576h-.985a6.982 6.982 0 0 0-6.982 6.995v2.222c-.575-.247-1.232-.494-1.807-.576h-.246c-.164 0-.41-.083-.575-.083h-1.314c-.082 0-.247 0-.329.083-.082 0-.164 0-.246.082-.164 0-.247.082-.41.082h-.083c-.493.165-.903.33-1.314.576-.082 0-.164.082-.164.082-.082.083-.165.083-.247.165-.082 0-.082.082-.164.082-.74-.987-1.15-2.221-1.15-3.538 0-.905.247-1.81.657-2.633.329-.576.247-1.234 0-1.893-.246-.658-.821-.987-1.478-1.07-3.04-.493-5.092-2.962-5.092-5.924Zm52.072 31.598c.822-1.481 2.629-1.975 4.025-1.235.657.412 1.232.988 1.396 1.81.165.824.082 1.564-.328 2.223L61.518 70.136a17.05 17.05 0 0 1-2.217 3.044c-1.15 1.152-1.725 1.317-1.725 1.317-.904.247-1.56 1.07-1.56 1.975V93.34H29.24V75.814c0-.576-.247-1.235-.74-1.564-.575-.494-2.135-2.14-2.135-3.62V32.449c0-.658.164-1.234.575-1.728.164-.165.246-.33.41-.494.083-.082.083-.082.165-.082.164-.082.246-.165.41-.247.083 0 .083-.082.165-.082.164-.083.328-.165.492-.165h.165c.246-.082.41-.082.657-.082.164 0 .328 0 .493.082h.164c.164 0 .246.082.41.165.083 0 .083 0 .165.082s.246.165.328.247c.083 0 .083.082.165.164.082.083.164.165.246.165l.164.165c.082.082.165.246.247.329.082.082.082.164.164.247.246.493.41.987.41 1.563v12.014c0 1.152.904 2.057 2.054 2.057s2.053-.905 2.053-2.057V23.89c0-1.563 1.315-2.88 2.875-2.88h.575c.082 0 .164.082.246.082.083 0 .247.083.329.083.082 0 .082.082.164.082.082.082.247.082.329.164.164.083.328.247.41.33.493.493.822 1.234.822 2.057V45.615c0 1.152.903 2.057 2.053 2.057s2.053-.905 2.053-2.057V17.72c0-.823.329-1.564.904-2.058.575-.576 1.314-.823 2.135-.823 1.56.083 2.793 1.482 2.793 3.127V44.71c0 1.152.986 2.058 2.135 2.058 1.15 0 2.054-.906 2.054-2.058V25.454c0-.329.082-.74.164-1.07 0-.082 0-.082.082-.164.082-.164.164-.247.247-.411v-.083c.164-.329.492-.576.739-.74h.082c.164-.082.246-.165.41-.247 0 0 .083 0 .083-.082.164-.083.246-.083.41-.083h.165c.164 0 .328-.082.575-.082.164 0 .41 0 .575.082.082 0 .164.083.246.083.082 0 .164.082.246.082.082 0 .165.082.247.165.082 0 .164.082.164.082.082.082.164.082.246.164l.165.165.246.247.164.164c.082.083.165.165.165.247 0 .083.082.083.082.165.082.082.082.164.164.329 0 .082 0 .165.082.165 0 .082.082.246.082.329 0 .164.082.329.082.493v24.604c0 .905.657 1.728 1.479 1.975.903.247 1.807-.165 2.3-.905l4.188-7.735Z" fill="#62C536"/><path d="M35.235 56.147c-3.613 0-6.652 2.962-6.652 6.665a6.631 6.631 0 0 0 6.652 6.666 6.631 6.631 0 0 0 6.653-6.666 6.631 6.631 0 0 0-6.653-6.665Zm0 9.134a2.561 2.561 0 0 1-2.546-2.551c0-1.399 1.15-2.55 2.546-2.55a2.561 2.561 0 0 1 2.547 2.55c0 1.399-1.15 2.55-2.547 2.55Z" fill="#62C536"/></svg>