<svg width="24" height="25" fill="none" xmlns="http://www.w3.org/2000/svg"><path d="M21.59 12.5c0-.568 0-1.25-.113-1.818l1.932-2.727c-.454-1.25-1.136-2.387-1.932-3.41l-3.295.341c-.91-.795-1.932-1.363-3.068-1.818L13.636.114C12.955 0 12.386 0 11.705 0c-.682 0-1.364 0-2.046.114L8.41 3.182C7.273 3.636 6.25 4.205 5.341 5l-3.41-.34C1.137 5.681.456 6.817 0 8.067l1.932 2.728c-.114.568-.114 1.136-.114 1.818 0 .568 0 1.25.114 1.818L0 16.932c.455 1.25 1.136 2.386 1.932 3.409L5.227 20c.91.796 1.932 1.364 3.068 1.818l1.364 3.068c.682.114 1.364.114 2.045.114.682 0 1.364 0 1.932-.114L15 21.818c1.136-.454 2.16-1.023 3.068-1.818l3.296.34c.795-1.022 1.477-2.158 1.931-3.408l-1.931-2.727a7.727 7.727 0 0 0 .227-1.705Zm-9.886 4.886A4.85 4.85 0 0 1 6.818 12.5a4.85 4.85 0 0 1 4.886-4.886 4.85 4.85 0 0 1 4.887 4.886c0 2.727-2.273 4.886-4.887 4.886Z" fill="#C1C7BF"/></svg>