<svg width="46" height="52" fill="none" xmlns="http://www.w3.org/2000/svg"><path d="M44.142 52H1.858C.874 52 0 51.14 0 50.173V19.77c0-.967.874-1.827 1.857-1.827.984 0 1.858.86 1.858 1.827v28.578h38.57V19.77c0-.967.874-1.827 1.858-1.827.983 0 1.857.86 1.857 1.827v30.404c-.11.968-.874 1.827-1.858 1.827Z" fill="#113602"/><path d="M20.323 42.008c-.11-.107-.11-.215-.11-.322 0-.108 0-.215.11-.215l3.06-4.19c-.22.107-.547.107-.875.107a5.143 5.143 0 0 1-2.513-.644c-.765-.43-1.42-.967-1.857-1.72-.437-.751-.656-1.503-.656-2.363 0-.86.219-1.719.656-2.47a4.597 4.597 0 0 1 1.966-1.827c.875-.43 1.858-.752 3.06-.752s2.294.214 3.168.644a4.597 4.597 0 0 1 1.967 1.827c.437.752.656 1.611.656 2.47 0 .538-.11 1.075-.219 1.612-.109.538-.437.967-.655 1.29-.219.322-.547.859-.984 1.396l-3.715 5.05-.327.322c-.11.108-.219.108-.437.108H20.65c-.219-.108-.328-.215-.328-.323Zm4.698-7.52c.547-.43.765-1.075.765-1.934 0-.752-.218-1.397-.765-1.934-.546-.43-1.201-.752-1.966-.752-.765 0-1.42.215-1.858.752-.546.43-.765 1.074-.765 1.934 0 .752.219 1.396.765 1.934.547.43 1.202.752 1.967.752.765 0 1.42-.323 1.857-.752Z" fill="#62C536"/><path d="M44.142 21.703h-1.857v26.644H3.715V21.702H1.857c-.874 0-1.638-.644-1.857-1.504v29.975C0 51.141.874 52 1.857 52h42.176c.984 0 1.858-.86 1.858-1.826V20.198c-.11.86-.874 1.505-1.748 1.505Z" fill="#113602"/><path d="M44.142 4.083h-6.228V1.826C37.914.86 37.04 0 36.057 0s-1.858.86-1.858 1.826v2.257h-9.287V1.826C24.912.86 24.038 0 22.945 0c-1.092 0-1.857.86-1.857 1.826v2.257H11.8V1.826C11.8.86 10.926 0 9.944 0S8.086.86 8.086 1.826v2.257H1.857C.874 4.083 0 4.943 0 5.909v13.967c0 .967.874 1.826 1.857 1.826h42.176c.984 0 1.858-.859 1.858-1.826V5.909c.109-.967-.765-1.826-1.748-1.826ZM42.176 18.05H3.715V7.736h4.37v2.686c0 .966.875 1.826 1.858 1.826.983 0 1.857-.86 1.857-1.826V7.736h9.288v2.686c0 .966.874 1.826 1.857 1.826.984 0 1.858-.86 1.858-1.826V7.736h9.287v2.686c0 .966.874 1.826 1.858 1.826.983 0 1.857-.86 1.857-1.826V7.736h4.37V18.05Z" fill="#62C536"/></svg>