<svg width="46" height="52" fill="none" xmlns="http://www.w3.org/2000/svg"><path d="M11.062 40.934h-9.2c-.986 0-1.862-.86-1.862-1.827V13.86c0-.967.876-1.827 1.862-1.827h9.2c.986 0 1.862.86 1.862 1.827 0 .966-.876 1.826-1.862 1.826H3.724v21.595h7.338c.986 0 1.862.86 1.862 1.826 0 .967-.876 1.827-1.862 1.827ZM44.138 40.934H34.61c-.985 0-1.861-.86-1.861-1.827 0-.966.876-1.826 1.861-1.826h7.777V15.686h-7.777c-.985 0-1.861-.86-1.861-1.826 0-.967.876-1.827 1.861-1.827h9.53c.985 0 1.861.86 1.861 1.827v25.247c0 .967-.876 1.827-1.862 1.827Z" fill="#113602"/><path d="M34.61 52H11.28c-1.095 0-1.971-.86-1.971-1.934V1.934C9.31.86 10.186 0 11.28 0h23.328c1.096 0 1.972.86 1.972 1.934v48.24c0 .967-.876 1.826-1.972 1.826Zm-21.358-3.76h19.386V3.868H13.252V48.24Z" fill="#62C536"/><path d="M28.914 30.083H16.976c-.985 0-1.752-.752-1.752-1.72 0-.966.767-1.718 1.752-1.718h11.938c.986 0 1.753.752 1.753 1.719 0 .967-.767 1.719-1.753 1.719ZM26.067 34.917h-6.243c-.986 0-1.862-.86-1.862-1.826 0-.967.876-1.826 1.862-1.826h6.243c.985 0 1.862.859 1.862 1.826 0 .967-.767 1.826-1.862 1.826ZM23.329 12.033l1.314 2.579c.11.107.219.214.328.214l2.848.43c.329 0 .438.43.22.645l-2.082 2.041c-.11.108-.11.215-.11.323l.548 2.793c.11.322-.328.537-.547.43l-2.629-1.29c-.11-.107-.219-.107-.329 0l-2.738 1.29c-.328.107-.657-.108-.547-.43l.547-2.793c0-.108 0-.215-.11-.323l-2.08-2.041c-.22-.215-.11-.645.219-.645l2.848-.43c.11 0 .219-.107.328-.214l1.314-2.579c.11-.215.439-.215.658 0Z" fill="#62C536"/></svg>