<svg width="46" height="52" fill="none" xmlns="http://www.w3.org/2000/svg"><path d="M9.896 0C4.459 0 0 4.879 0 10.828c0 5.95 4.459 10.829 9.896 10.829 5.437 0 9.896-4.879 9.896-10.829C19.792 4.878 15.333 0 9.896 0Zm0 17.492c-3.371 0-6.199-2.975-6.199-6.783 0-3.57 2.828-6.663 6.199-6.663s6.199 2.975 6.199 6.782c-.11 3.69-2.828 6.664-6.199 6.664ZM36.539 31.295c-5.22 0-9.461 4.64-9.461 10.353 0 5.711 4.241 10.352 9.461 10.352C41.759 52 46 47.36 46 41.648c0-5.712-4.241-10.353-9.461-10.353Zm0 16.778c-3.262 0-5.872-2.856-5.872-6.425 0-3.57 2.61-6.426 5.872-6.426s5.872 2.856 5.872 6.426c0 3.45-2.61 6.425-5.872 6.425Z" fill="#62C536"/><path d="M5.655 48.073c-.435 0-.979-.238-1.305-.595-.761-.833-.761-2.023 0-2.856L40.454 5.117c.761-.833 1.849-.833 2.61 0 .761.833.761 2.023 0 2.856L6.85 47.478c-.326.357-.761.595-1.196.595Z" fill="#113602"/></svg>