<svg width="46" height="52" fill="none" xmlns="http://www.w3.org/2000/svg"><path d="M27.659 13.72c1.69 0 3.06-1.393 3.06-3.113 0-1.719-1.37-3.113-3.06-3.113s-3.061 1.394-3.061 3.114c0 1.719 1.37 3.113 3.06 3.113ZM37.86 20.754c2.254 0 4.081-1.859 4.081-4.15 0-2.293-1.827-4.152-4.08-4.152-2.254 0-4.081 1.859-4.081 4.151s1.827 4.15 4.08 4.15Z" fill="#62C536"/><path d="M45.569 24.79c-.34-.462-.907-.692-1.474-.692H19.61v3.92h5.668c.794 6.456 6.121 11.414 12.696 11.414.793 0 1.587-.115 2.38-.23l-1.36 8.878h-6.121c.793.23 1.474 1.038 1.474 1.96 0 1.038-.794 1.845-1.814 1.96h6.914a3.196 3.196 0 0 0 3.174-2.767l1.814-12.452 1.474-10.262c.227-.692 0-1.268-.34-1.73ZM40.92 35.05c-.907.346-1.927.576-2.947.576-4.42 0-8.048-3.228-8.842-7.494h12.81l-1.02 6.918Z" fill="#113602"/><path d="M32.42 47.965H21.877c-.226-1.384-1.133-2.422-2.267-2.998V1.96C19.61.922 18.704 0 17.683 0c-1.02 0-1.927.922-1.927 1.96v43.007c-1.133.576-2.04 1.73-2.267 2.998H1.927c-1.02 0-1.927.922-1.927 1.96 0 1.037.907 1.96 1.927 1.96h30.492c1.02 0 1.928-.923 1.928-1.96 0-1.038-.907-1.96-1.928-1.96Z" fill="#62C536"/></svg>