<svg width="46" height="52" fill="none" xmlns="http://www.w3.org/2000/svg"><path d="M13.316 17.485c4.68 0 8.473-3.914 8.473-8.743C21.79 3.914 17.997 0 13.316 0c-4.68 0-8.474 3.914-8.474 8.742 0 4.829 3.794 8.743 8.474 8.743Z" fill="#62C536"/><path d="M32.684 15.328c3.525 0 6.383-2.949 6.383-6.586 0-3.637-2.858-6.585-6.383-6.585s-6.383 2.948-6.383 6.585 2.858 6.585 6.383 6.585ZM35.766 18.28h-6.053c-3.632 0-6.933 2.043-8.804 5.109 1.1.794 1.981 1.703 2.861 2.724.99-2.384 3.412-3.973 5.943-3.973h6.163c3.631 0 6.492 3.065 6.492 6.698V48.14H26.632v1.93c0 .908-.55 1.59-1.321 1.816h18.818c.99 0 1.871-.908 1.871-1.93V28.838c0-5.904-4.622-10.559-10.234-10.559Z" fill="#113602"/><path d="M24.76 52H1.87C.88 52 0 51.092 0 50.07V34.742c0-7.607 5.943-13.738 13.316-13.738 7.373 0 13.316 6.131 13.316 13.738v15.441c0 1.022-.77 1.817-1.871 1.817ZM3.743 48.14H22.89V34.742c0-5.45-4.292-9.877-9.574-9.877-5.283 0-9.574 4.428-9.574 9.877V48.14Z" fill="#62C536"/></svg>